<svg preserveAspectRatio="none" width="100%" height="100%" overflow="visible" style="display: block;" viewBox="0 0 40.15 32" fill="none" xmlns="http://www.w3.org/2000/svg">
<g id="Container">
<path id="Icon" d="M16.05 32C11.5833 32 7.79167 30.45 4.675 27.35C1.55833 24.25 0 20.4667 0 16C0 11.5333 1.55833 7.75 4.675 4.65C7.79167 1.55 11.5833 0 16.05 0H24.1C28.5667 0 32.3583 1.55 35.475 4.65C38.5917 7.75 40.15 11.5333 40.15 16C40.15 20.4667 38.5917 24.25 35.475 27.35C32.3583 30.45 28.5667 32 24.1 32H16.05ZM17.25 19.35L13 15.1C12.6333 14.7 12.175 14.5 11.625 14.5C11.075 14.5 10.6 14.7 10.2 15.1C9.8 15.5 9.6 15.975 9.6 16.525C9.6 17.075 9.8 17.5333 10.2 17.9L15.15 22.85C15.75 23.45 16.4667 23.75 17.3 23.75C18.1333 23.75 18.8333 23.45 19.4 22.85L30 12.25C30.4 11.8833 30.6 11.4167 30.6 10.85C30.6 10.2833 30.4 9.81667 30 9.45C29.6 9.05 29.125 8.85 28.575 8.85C28.025 8.85 27.55 9.05 27.15 9.45L17.25 19.35Z" fill="var(--fill-0, #22C55E)"/>
</g>
</svg>
