<svg preserveAspectRatio="none" width="100%" height="100%" overflow="visible" style="display: block;" viewBox="0 0 34 35" fill="none" xmlns="http://www.w3.org/2000/svg">
<g id="Frame" clip-path="url(#clip0_0_184)">
<path id="Vector" d="M0.0276693 7.04915C0.0276693 5.98754 0.863678 5.12695 1.89495 5.12695H4.38465C5.41591 5.12695 6.25193 5.98754 6.25193 7.04915C6.25193 8.11075 5.41591 8.97135 4.38465 8.97135H1.89495C0.863678 8.97135 0.0276693 8.11075 0.0276693 7.04915Z" fill="white"/>
<path id="Vector_2" d="M0.0276693 17.3002C0.0276693 16.2386 0.863678 15.378 1.89495 15.378H4.38465C5.41591 15.378 6.25193 16.2386 6.25193 17.3002C6.25193 18.3618 5.41591 19.2223 4.38465 19.2223H1.89495C0.863678 19.2223 0.0276693 18.3618 0.0276693 17.3002Z" fill="white"/>
<path id="Vector_3" d="M0.0276693 27.5513C0.0276693 26.4896 0.863678 25.6291 1.89495 25.6291H4.38465C5.41591 25.6291 6.25193 26.4896 6.25193 27.5513C6.25193 28.6128 5.41591 29.4735 4.38465 29.4735H1.89495C0.863678 29.4735 0.0276693 28.6128 0.0276693 27.5513Z" fill="white"/>
<path id="Vector_4" fill-rule="evenodd" clip-rule="evenodd" d="M3.76025 5.12594V8.97033H4.38272C5.41399 8.97033 6.25 8.10973 6.25 7.04814C6.25 5.98653 5.41399 5.12594 4.38272 5.12594H3.76025ZM4.38272 2.56301H4.38107C5.21534 1.03348 6.80616 0 8.63146 0H28.9176C31.608 0 33.7888 2.24506 33.7888 5.01448V29.5851C33.7888 32.3544 31.608 34.5995 28.9176 34.5995H8.63146C6.8062 34.5995 5.21541 33.5662 4.38112 32.0367H4.38269C6.78899 32.0367 8.73968 30.0285 8.73968 27.5516C8.73968 25.0744 6.78899 23.0665 4.38269 23.0665H3.76025V21.785H4.38269C6.78899 21.785 8.73968 19.777 8.73968 17.2999C8.73968 14.8229 6.78899 12.8148 4.38269 12.8148H3.76025V11.5333H4.38272C6.78902 11.5333 8.7397 9.52521 8.7397 7.04814C8.7397 4.57107 6.78902 2.56301 4.38272 2.56301ZM4.38269 29.4736H3.76025V25.6293H4.38269C5.41397 25.6293 6.24997 26.4899 6.24997 27.5516C6.24997 28.6131 5.41397 29.4736 4.38269 29.4736ZM4.38269 19.2221H3.76025V15.3778H4.38269C5.41397 15.3778 6.24997 16.2384 6.24997 17.2999C6.24997 18.3616 5.41397 19.2221 4.38269 19.2221ZM14.0303 5.76659C13.1709 5.76659 12.4743 6.48375 12.4743 7.36842C12.4743 8.25309 13.1709 8.97025 14.0303 8.97025H27.1013C27.9606 8.97025 28.6574 8.25309 28.6574 7.36842C28.6574 6.48375 27.9606 5.76659 27.1013 5.76659H14.0303ZM12.4743 15.0571C12.4743 14.1725 13.1709 13.4554 14.0303 13.4554H27.1013C27.9606 13.4554 28.6574 14.1725 28.6574 15.0571C28.6574 15.9419 27.9606 16.659 27.1013 16.659H14.0303C13.1709 16.659 12.4743 15.9419 12.4743 15.0571ZM14.0303 21.1442C13.1709 21.1442 12.4743 21.8613 12.4743 22.7461C12.4743 23.6307 13.1709 24.3479 14.0303 24.3479H23.3667C24.226 24.3479 24.9227 23.6307 24.9227 22.7461C24.9227 21.8613 24.226 21.1442 23.3667 21.1442H14.0303Z" fill="white"/>
</g>
<defs>
<clipPath id="clip0_0_184">
<rect width="34" height="35" fill="white"/>
</clipPath>
</defs>
</svg>
