<svg preserveAspectRatio="none" width="100%" height="100%" overflow="visible" style="display: block;" viewBox="0 0 120.037 119.293" fill="none" xmlns="http://www.w3.org/2000/svg">
<g id="Frame" filter="url(#filter0_d_0_6)">
<g id="Vector" opacity="0.3">
</g>
<path id="Vector_2" d="M17.9652 52.6703C17.9652 45.3318 23.9142 39.3828 31.2527 39.3828H87.5087C94.8472 39.3828 100.796 45.3318 100.796 52.6703V87.9063C100.796 90.8417 98.4166 93.2213 95.4812 93.2213H23.2802C20.3448 93.2213 17.9652 90.8417 17.9652 87.9063V52.6703Z" fill="#C7AF6D"/>
<path id="Vector_3" d="M15.0941 33.4359C15.0941 26.0974 21.0432 20.1484 28.3817 20.1484H90.8329C98.1713 20.1484 104.12 26.0974 104.12 33.4359V72.9663H15.0941V33.4359Z" fill="#C7AF6D"/>
<path id="Vector_4" d="M108.932 56.6875H11.1V71.9681H108.932V56.6875Z" fill="#D8D8D8"/>
<path id="Vector_5" d="M95.8129 33.7656H106.279C107.747 33.7656 108.937 34.9554 108.937 36.4231V60.6728H95.8129V33.7656Z" fill="#C7AF6D"/>
<path id="Vector_6" d="M11.1 36.4231C11.1 34.9554 12.2898 33.7656 13.7575 33.7656H22.2309C23.6986 33.7656 24.8884 34.9554 24.8884 36.4231V58.0153C24.8884 59.483 23.6986 60.6728 22.2309 60.6728H13.7575C12.2898 60.6728 11.1 59.483 11.1 58.0153V36.4231Z" fill="#C7AF6D"/>
<path id="Vector_7" d="M15.0941 18.5637C15.0941 17.096 16.2839 15.9062 17.7516 15.9062H31.7035C33.1712 15.9062 34.361 17.096 34.361 18.5637V45.733H15.0941V18.5637Z" fill="#A38F5A"/>
<path id="Vector_8" d="M84.852 18.5637C84.852 17.096 86.0419 15.9062 87.5096 15.9062H101.461C102.929 15.9062 104.119 17.096 104.119 18.5637V45.733H84.852V18.5637Z" fill="#A38F5A"/>
<path id="Vector_9" d="M15.266 32.0006L34.2841 27.2656V44.0327L15.266 43.7997V32.0006Z" fill="#C7AF6D"/>
<path id="Vector_10" d="M15.0941 42.0469H34.361V61.2592H15.0941V42.0469Z" fill="#A6925C"/>
<path id="Vector_11" d="M15.0941 69.6498C15.0941 68.1821 16.2839 66.9922 17.7516 66.9922H31.7035C33.1712 66.9922 34.361 68.1821 34.361 69.6498V93.3051C34.361 94.7728 33.1712 95.9627 31.7035 95.9627H17.7516C16.2839 95.9627 15.0941 94.7728 15.0941 93.3051V69.6498Z" fill="#C7AF6D"/>
<path id="Vector_12" d="M83.1059 69.6498C83.1059 68.1821 84.2957 66.9922 85.7634 66.9922H99.7152C101.183 66.9922 102.373 68.1821 102.373 69.6498V93.3051C102.373 94.7728 101.183 95.9627 99.7152 95.9627H85.7634C84.2957 95.9627 83.1059 94.7728 83.1059 93.3051V69.6498Z" fill="#C7AF6D"/>
<path id="Vector_13" d="M104.119 42.0469H84.852V61.2592H104.119V42.0469Z" fill="#A6925C"/>
<path id="Vector_14" d="M63.2616 66.1641H55.9535V79.0363H63.2616V66.1641Z" fill="#C4C4C4"/>
<path id="Vector_15" d="M34.361 73.3047H15.0941V79.7823H34.361V73.3047Z" fill="#9A9A9A"/>
<path id="Vector_16" d="M102.373 73.3047H83.1059V79.7823H102.373V73.3047Z" fill="#9A9A9A"/>
<path id="Vector_17" d="M83.1005 84.5859H34.352V88.0739H83.1005V84.5859Z" fill="#A38F5A"/>
<path id="Vector_18" d="M84.8444 31.3359H34.352V34.8239H84.8444V31.3359Z" fill="#A38F5A"/>
<path id="Vector_19" opacity="0.92" d="M83.1005 73.3047H34.352V79.7823H83.1005V73.3047Z" fill="#888888"/>
<path id="Vector_20" opacity="0.92" d="M84.8444 46.7891H34.352V56.6846H84.8444V46.7891Z" fill="#A38F5A"/>
<path id="Vector_21" d="M11.1 61.2578H108.932V73.2996C108.932 74.7673 107.742 75.9572 106.274 75.9572H13.7575C12.2898 75.9572 11.1 74.7673 11.1 73.2996V61.2578Z" fill="#F6F6F6"/>
<path id="Vector_22" d="M69.0682 50.8672H49.3031C47.1015 50.8672 45.3168 52.6519 45.3168 54.8534V71.0055C45.3168 73.207 47.1015 74.9917 49.3031 74.9917H69.0682C71.2698 74.9917 73.0545 73.207 73.0545 71.0055V54.8534C73.0545 52.6519 71.2698 50.8672 69.0682 50.8672Z" fill="#D8D8D8"/>
<path id="Vector_23" d="M51.5146 50.8672H49.303C47.1015 50.8672 45.3168 52.6518 45.3168 54.8534V71.0055C45.3168 73.207 47.1015 74.9917 49.303 74.9917H50.6338C51.3302 74.9917 51.8905 74.4193 51.8755 73.723L51.5146 56.951V50.8672Z" fill="#EDEDED"/>
<path id="Vector_24" d="M69.0682 56.7969H49.3031C47.1015 56.7969 45.3168 58.5816 45.3168 60.7831V76.5906C45.3168 78.7921 47.1015 80.5768 49.3031 80.5768H69.0682C71.2698 80.5768 73.0545 78.7921 73.0545 76.5906V60.7831C73.0545 58.5816 71.2698 56.7969 69.0682 56.7969Z" fill="#F6F6F6"/>
<path id="Vector_25" d="M58.7284 70.5766C61.618 70.5766 63.9604 68.473 63.9604 65.8781C63.9604 63.2832 61.618 61.1797 58.7284 61.1797C55.8389 61.1797 53.4965 63.2832 53.4965 65.8781C53.4965 68.473 55.8389 70.5766 58.7284 70.5766Z" fill="#A6925C"/>
<path id="Vector_26" d="M57.5409 68.3907C58.0306 67.4114 59.4281 67.4114 59.9178 68.3907L62.2987 73.1523C62.7405 74.0358 62.0982 75.0753 61.1103 75.0753H56.3484C55.3607 75.0753 54.7182 74.0358 55.16 73.1523L57.5409 68.3907Z" fill="#A6925C"/>
<path id="Vector_27" d="M84.8969 21.7141L104.077 17.0859V27.6429L84.8969 32.2712V21.7141Z" fill="#C7AF6D"/>
<path id="Vector_28" d="M45.3194 56.1406H34.1293V61.1814H45.3194V56.1406Z" fill="#EDEDED"/>
</g>
<defs>
<filter id="filter0_d_0_6" x="-4.12109" y="-7.1" width="128.238" height="141.493" filterUnits="userSpaceOnUse" color-interpolation-filters="sRGB">
<feFlood flood-opacity="0" result="BackgroundImageFix"/>
<feColorMatrix in="SourceAlpha" type="matrix" values="0 0 0 0 0 0 0 0 0 0 0 0 0 0 0 0 0 0 127 0" result="hardAlpha"/>
<feOffset dy="4"/>
<feGaussianBlur stdDeviation="5.55"/>
<feComposite in2="hardAlpha" operator="out"/>
<feColorMatrix type="matrix" values="0 0 0 0 0 0 0 0 0 0 0 0 0 0 0 0 0 0 0.25 0"/>
<feBlend mode="normal" in2="BackgroundImageFix" result="effect1_dropShadow_0_6"/>
<feBlend mode="normal" in="SourceGraphic" in2="effect1_dropShadow_0_6" result="shape"/>
</filter>
</defs>
</svg>
