<svg preserveAspectRatio="none" width="100%" height="100%" overflow="visible" style="display: block;" viewBox="0 0 106.038 121.933" fill="none" xmlns="http://www.w3.org/2000/svg">
<g id="Group 154" filter="url(#filter0_d_0_35)">
<g id="Vector" opacity="0.3">
</g>
<path id="Vector_2" d="M10.9863 70.135C10.9863 62.64 16.9353 56.5641 24.2738 56.5641L80.5298 56.5641C87.8683 56.5641 93.8173 62.64 93.8173 70.135L93.8173 106.123C93.8173 109.121 91.4377 111.551 88.5023 111.551L16.3013 111.551C13.3659 111.551 10.9863 109.121 10.9863 106.123L10.9863 70.135Z" fill="#C7AF6D"/>
<path id="Vector_3" d="M8 38.2196C8 45.3148 13.9473 51.0665 21.2836 51.0665L83.7163 51.0665C91.0526 51.0665 97 45.3148 97 38.2196L97 0L8 2.40345e-07L8 38.2196Z" fill="#C7AF6D"/>
<path id="Vector_4" d="M101.953 74.2379L4.12109 74.2379L4.12109 89.8445L101.953 89.8445L101.953 74.2379Z" fill="#D8D8D8"/>
<path id="Vector_5" d="M88.834 50.8271L99.3006 50.8271C100.768 50.8271 101.958 52.0422 101.958 53.5412L101.958 78.3082L88.834 78.3082L88.834 50.8271Z" fill="#C7AF6D"/>
<path id="Vector_6" d="M4.12109 53.5412C4.12109 52.0422 5.31089 50.8271 6.77859 50.8271L15.2519 50.8271C16.7196 50.8271 17.9095 52.0422 17.9095 53.5412L17.9095 75.594C17.9095 77.093 16.7196 78.3082 15.2519 78.3082L6.77859 78.3082C5.31089 78.3082 4.12109 77.093 4.12109 75.594L4.12109 53.5412Z" fill="#C7AF6D"/>
<path id="Vector_7" d="M8 52.6039C8 54.0111 9.17332 55.1518 10.6207 55.1518L24.3792 55.1518C25.8266 55.1518 27 54.0111 27 52.6039L27 26.5546L8 26.5546L8 52.6039Z" fill="#A38F5A"/>
<path id="Vector_8" d="M78 52.6039C78 54.0111 79.1734 55.1518 80.6208 55.1518L94.3793 55.1518C95.8266 55.1518 97 54.0111 97 52.6039L97 26.5546L78 26.5546L78 52.6039Z" fill="#A38F5A"/>
<path id="Vector_9" d="M8 39.3025L27 43.9172L27 27.5759L8 27.803L8 39.3025Z" fill="#C7AF6D"/>
<path id="Vector_10" d="M8 29.6186L27 29.6186L27 11.2346L8 11.2346L8 29.6186Z" fill="#A6925C"/>
<path id="Vector_11" d="M8.11523 87.4767C8.11523 85.9777 9.30503 84.7624 10.7727 84.7624L24.7245 84.7624C26.1922 84.7624 27.3821 85.9777 27.3821 87.4767L27.3821 111.637C27.3821 113.136 26.1922 114.351 24.7245 114.351L10.7727 114.351C9.30503 114.351 8.11523 113.136 8.11523 111.637L8.11523 87.4767Z" fill="#C7AF6D"/>
<path id="Vector_12" d="M76.127 87.4767C76.127 85.9777 77.3168 84.7624 78.7845 84.7624L92.7363 84.7624C94.204 84.7624 95.3939 85.9777 95.3939 87.4767L95.3939 111.637C95.3939 113.136 94.204 114.351 92.7363 114.351L78.7845 114.351C77.3168 114.351 76.127 113.136 76.127 111.637L76.127 87.4767Z" fill="#C7AF6D"/>
<path id="Vector_13" d="M97 29.6186L78 29.6186L78 11.2346L97 11.2346L97 29.6186Z" fill="#A6925C"/>
<path id="Vector_14" d="M56.2827 83.9166L48.9746 83.9166L48.9746 97.0634L56.2827 97.0634L56.2827 83.9166Z" fill="#C4C4C4"/>
<path id="Vector_15" d="M27.3821 91.2096L8.11523 91.2096L8.11523 97.8254L27.3821 97.8254L27.3821 91.2096Z" fill="#9A9A9A"/>
<path id="Vector_16" d="M95.3938 91.2096L76.127 91.2096L76.127 97.8254L95.3938 97.8254L95.3938 91.2096Z" fill="#9A9A9A"/>
<path id="Vector_17" d="M76.1216 102.731L27.373 102.731L27.373 106.294L76.1216 106.294L76.1216 102.731Z" fill="#A38F5A"/>
<path id="Vector_18" d="M77.7376 49.3669L27.2451 49.3669L27.2451 52.9293L77.7376 52.9293L77.7376 49.3669Z" fill="#A38F5A"/>
<path id="Vector_19" opacity="0.92" d="M76.1216 91.2096L27.373 91.2096L27.373 97.8254L76.1216 97.8254L76.1216 91.2096Z" fill="#888888"/>
<path id="Vector_20" opacity="0.92" d="M78 25.5332L27 25.5332L27 15.3199L78 15.3199L78 25.5332Z" fill="#A38F5A"/>
<path id="Vector_21" d="M4.12109 78.9057L101.953 78.9057L101.953 91.2044C101.953 92.7034 100.763 93.9186 99.2953 93.9186L6.77859 93.9186C5.31089 93.9186 4.12109 92.7034 4.12109 91.2044L4.12109 78.9057Z" fill="#F6F6F6"/>
<path id="Vector_22" d="M62.0893 68.2935L42.3241 68.2935C40.1226 68.2935 38.3379 70.1162 38.3379 72.3647L38.3379 88.8613C38.3379 91.1098 40.1226 92.9326 42.3241 92.9326L62.0893 92.9326C64.2908 92.9326 66.0756 91.1098 66.0756 88.8613L66.0756 72.3647C66.0756 70.1162 64.2908 68.2935 62.0893 68.2935Z" fill="#D8D8D8"/>
<path id="Vector_23" d="M44.5357 68.2935L42.3241 68.2935C40.1226 68.2935 38.3379 70.1161 38.3379 72.3647L38.3379 88.8613C38.3379 91.1098 40.1226 92.9326 42.3241 92.9326L43.6549 92.9326C44.3513 92.9326 44.9116 92.3479 44.8966 91.6368L44.5357 74.507L44.5357 68.2935Z" fill="#EDEDED"/>
<path id="Vector_24" d="M62.0893 74.3496L42.3241 74.3496C40.1226 74.3496 38.3379 76.1724 38.3379 78.4209L38.3379 94.5655C38.3379 96.814 40.1226 98.6368 42.3241 98.6368L62.0893 98.6368C64.2908 98.6368 66.0756 96.814 66.0756 94.5655L66.0756 78.4209C66.0756 76.1724 64.2908 74.3496 62.0893 74.3496Z" fill="#F6F6F6"/>
<path id="Vector_25" d="M51.7495 88.4232C54.6391 88.4232 56.9815 86.2748 56.9815 83.6246C56.9815 80.9744 54.6391 78.8259 51.7495 78.8259C48.86 78.8259 46.5176 80.9744 46.5176 83.6246C46.5176 86.2748 48.86 88.4232 51.7495 88.4232Z" fill="#A6925C"/>
<path id="Vector_26" d="M50.562 86.1907C51.0517 85.1906 52.4492 85.1906 52.9389 86.1907L55.3198 91.054C55.7616 91.9562 55.1193 93.018 54.1314 93.018L49.3695 93.018C48.3818 93.018 47.7393 91.9562 48.1811 91.054L50.562 86.1907Z" fill="#A6925C"/>
<path id="Vector_27" d="M78 49.4613L97 54.1305L97 43.4799L78 38.8105L78 49.4613Z" fill="#C7AF6D"/>
<path id="Vector_28" d="M38.3405 73.6794L27.1504 73.6794L27.1504 78.8277L38.3405 78.8277L38.3405 73.6794Z" fill="#EDEDED"/>
</g>
<defs>
<filter id="filter0_d_0_35" x="1.02109" y="0" width="104.037" height="121.451" filterUnits="userSpaceOnUse" color-interpolation-filters="sRGB">
<feFlood flood-opacity="0" result="BackgroundImageFix"/>
<feColorMatrix in="SourceAlpha" type="matrix" values="0 0 0 0 0 0 0 0 0 0 0 0 0 0 0 0 0 0 127 0" result="hardAlpha"/>
<feOffset dy="4"/>
<feGaussianBlur stdDeviation="1.55"/>
<feComposite in2="hardAlpha" operator="out"/>
<feColorMatrix type="matrix" values="0 0 0 0 0 0 0 0 0 0 0 0 0 0 0 0 0 0 0.25 0"/>
<feBlend mode="normal" in2="BackgroundImageFix" result="effect1_dropShadow_0_35"/>
<feBlend mode="normal" in="SourceGraphic" in2="effect1_dropShadow_0_35" result="shape"/>
</filter>
</defs>
</svg>
