<svg width="94" height="108.281" viewBox="0 0 94 108.281" fill="none" xmlns="http://www.w3.org/2000/svg">
  <!-- Figma 2106:1295 — gold outer (group155) + inner + stack icon (group156). -->
  <ellipse cx="47" cy="65.2812" rx="47" ry="43" fill="#A38F5A"/>
  <ellipse cx="47" cy="45" rx="47" ry="45" fill="#C7AF6D"/>
  <g transform="translate(7.95 6.63)">
    <mask id="stack_mask0" style="mask-type:alpha" maskUnits="userSpaceOnUse" x="0" y="0" width="77" height="70">
      <ellipse cx="38.4388" cy="34.6836" rx="38.4388" ry="34.6836" fill="#D9D9D9"/>
    </mask>
    <g mask="url(#stack_mask0)">
      <path d="M50.3679 -2.8935L2.65088 52.7448L-20.5449 23.1192L11.9292 -10.1192L50.3679 -2.8935Z" fill="#E3C87D"/>
      <path d="M68.9246 -2.8935L11.9292 65.0285L31.1486 78.0349L81.5166 18.7838L68.9246 -2.8935Z" fill="#E3C87D"/>
    </g>
    <path d="M38.5469 57.2441L18.0469 41.8111L21.8052 39.0552L38.5469 51.6221L55.2885 39.0552L59.0469 41.8111L38.5469 57.2441ZM38.5469 46.1103L18.0469 30.6772L38.5469 15.2441L59.0469 30.6772L38.5469 46.1103ZM38.5469 40.4882L51.6441 30.6772L38.5469 20.8662L25.4497 30.6772L38.5469 40.4882Z" fill="white"/>
  </g>
</svg>
