<svg width="94" height="108.281" viewBox="0 0 94 108.281" fill="none" xmlns="http://www.w3.org/2000/svg">
  <!-- Figma 2106:1295 — navy outer (group150) + inner + ? icon (group151). -->
  <ellipse cx="47" cy="65.2812" rx="47" ry="43" fill="#233445"/>
  <ellipse cx="47" cy="45" rx="47" ry="45" fill="#2C4260"/>
  <g transform="translate(7.95 6.63)">
    <g>
      <mask id="quiz_mask0" style="mask-type:alpha" maskUnits="userSpaceOnUse" x="0" y="0" width="77" height="70">
        <ellipse cx="38.4388" cy="34.6836" rx="38.4388" ry="34.6836" fill="#D9D9D9"/>
      </mask>
      <g mask="url(#quiz_mask0)">
        <path d="M50.3679 -2.8935L2.65088 52.7448L-20.5449 23.1192L11.9292 -10.1192L50.3679 -2.8935Z" fill="#3263A5"/>
        <path d="M68.9246 -2.8935L11.9292 65.0285L31.1486 78.0349L81.5166 18.7838L68.9246 -2.8935Z" fill="#3263A5"/>
      </g>
      <path d="M42.0488 41.0359C42.521 41.0359 42.9308 40.8623 43.278 40.515C43.6253 40.1678 43.7989 39.758 43.7989 39.2857C43.7989 38.8135 43.6253 38.4037 43.278 38.0565C42.9308 37.7092 42.521 37.5356 42.0488 37.5356C41.5765 37.5356 41.1667 37.7092 40.8195 38.0565C40.4722 38.4037 40.2986 38.8135 40.2986 39.2857C40.2986 39.758 40.4722 40.1678 40.8195 40.515C41.1667 40.8623 41.5765 41.0359 42.0488 41.0359ZM40.7986 35.7021H43.2989C43.2989 34.8964 43.3822 34.3061 43.5489 33.9311C43.7156 33.556 44.1045 33.0629 44.7157 32.4518C45.5491 31.6183 46.1047 30.9447 46.3825 30.4307C46.6603 29.9168 46.7992 29.3126 46.7992 28.6181C46.7992 27.3679 46.3617 26.347 45.4866 25.5553C44.6115 24.7635 43.4656 24.3677 42.0488 24.3677C40.9098 24.3677 39.9166 24.6871 39.0693 25.3261C38.222 25.965 37.6317 26.8123 37.2983 27.868L39.5485 28.7847C39.7986 28.0902 40.1389 27.5694 40.5695 27.2221C41.0001 26.8748 41.4932 26.7012 42.0488 26.7012C42.7155 26.7012 43.2572 26.8887 43.6739 27.2638C44.0906 27.6388 44.299 28.1458 44.299 28.7847C44.299 29.1737 44.1879 29.5418 43.9656 29.889C43.7434 30.2363 43.3544 30.6738 42.7988 31.2016C41.8821 32.0073 41.3195 32.6393 41.1112 33.0977C40.9028 33.556 40.7986 34.4242 40.7986 35.7021ZM32.0478 46.0364C31.1311 46.0364 30.3463 45.71 29.6934 45.0571C29.0406 44.4043 28.7142 43.6195 28.7142 42.7027V22.7008C28.7142 21.7841 29.0406 20.9993 29.6934 20.3464C30.3463 19.6936 31.1311 19.3672 32.0478 19.3672H52.0497C52.9665 19.3672 53.7513 19.6936 54.4041 20.3464C55.0569 20.9993 55.3834 21.7841 55.3834 22.7008V42.7027C55.3834 43.6195 55.0569 44.4043 54.4041 45.0571C53.7513 45.71 52.9665 46.0364 52.0497 46.0364H32.0478ZM32.0478 42.7027H52.0497V22.7008H32.0478V42.7027ZM25.3805 52.7037C24.4638 52.7037 23.679 52.3773 23.0261 51.7244C22.3733 51.0716 22.0469 50.2868 22.0469 49.37V26.0345H25.3805V49.37H48.7161V52.7037H25.3805Z" fill="white"/>
    </g>
  </g>
</svg>
