<svg width="94" height="108.281" viewBox="0 0 94 108.281" fill="none" xmlns="http://www.w3.org/2000/svg">
  <!-- Figma 2106:1295 — gray outer (group154) + inner wedge + boxing glove. -->
  <ellipse cx="47" cy="65.2812" rx="47" ry="43" fill="#7C7C7C"/>
  <ellipse cx="47" cy="45" rx="47" ry="45" fill="#707070"/>
  <g transform="translate(7.95 6.63)">
    <mask id="challenge_mask0" style="mask-type:alpha" maskUnits="userSpaceOnUse" x="0" y="0" width="77" height="70">
      <ellipse cx="38.4388" cy="34.6836" rx="38.4388" ry="34.6836" fill="#D9D9D9"/>
    </mask>
    <g mask="url(#challenge_mask0)">
      <path d="M50.3679 -3.49189L2.65088 47.5389L-20.5449 20.3666L11.9292 -10.1193L50.3679 -3.49189Z" fill="#A7A7A7"/>
      <path d="M68.9246 -3.49189L11.9292 58.8054L31.1486 70.7347L81.5166 16.3902L68.9246 -3.49189Z" fill="#A7A7A7"/>
    </g>
    <g transform="translate(25 21.88)">
      <path d="M8.6826 17.0162C8.54485 21.3276 13.6258 26.6413 18.3884 28.3101M8.6826 17.0162C8.20127 17.8443 3.27552 21.7931 3.18844 23.4651C2.77202 26.7869 8.41502 33.0268 12.7676 33.239C14.3905 33.4702 16.6452 30.7374 18.9299 28.7044C20.1887 27.5865 22.0016 27.3269 29.2596 25.525C31.8943 25.0674 35.0578 20.5249 30.3679 16.6742M8.6826 17.0162C10.1535 13.5329 12.6932 6.79419 17.6759 4.1326C19.6994 2.9831 24.9561 1.92544 30.1051 6.8211C31.8784 8.31102 34.9501 11.5743 32.0906 15.3363C30.1843 17.5561 27.3026 16.9133 27.0239 20.7544" stroke="white" stroke-width="2.55" stroke-linecap="round" stroke-linejoin="round"/>
    </g>
  </g>
</svg>
