<svg width="94" height="108.281" viewBox="0 0 94 108.281" fill="none" xmlns="http://www.w3.org/2000/svg">
  <!-- Figma 2106:1295 — Group 152 (outer) + Group 153 (inner + icon). -->
  <ellipse cx="47" cy="65.2812" rx="47" ry="43" fill="#D73A3C"/>
  <ellipse cx="47" cy="45" rx="47" ry="45" fill="#FF4D4F"/>
  <g transform="translate(7.95 6.63)">
    <mask id="live_mask0" style="mask-type:alpha" maskUnits="userSpaceOnUse" x="0" y="0" width="77" height="70">
      <ellipse cx="38.4388" cy="34.6836" rx="38.4388" ry="34.6836" fill="#D9D9D9"/>
    </mask>
    <g mask="url(#live_mask0)">
      <path d="M50.3679 -3.49189L2.65088 47.5389L-20.5449 20.3666L11.9292 -10.1193L50.3679 -3.49189Z" fill="#FF6969"/>
      <path d="M68.9246 -3.49189L11.9292 58.8054L31.1486 70.7347L81.5166 16.3902L68.9246 -3.49189Z" fill="#FF6969"/>
    </g>
    <g filter="url(#live_icon_shadow)">
      <path d="M37.2142 50.5385L37.2142 38.126C36.7642 37.851 36.4017 37.4947 36.1267 37.0572C35.8517 36.6197 35.7142 36.1135 35.7142 35.5385C35.7142 34.7135 36.0079 34.0072 36.5954 33.4197C37.1829 32.8322 37.8892 32.5385 38.7142 32.5385C39.5392 32.5385 40.2454 32.8322 40.8329 33.4197C41.4204 34.0072 41.7142 34.7135 41.7142 35.5385C41.7142 36.1135 41.5767 36.626 41.3017 37.076C41.0267 37.526 40.6642 37.876 40.2142 38.126L40.2142 50.5385L37.2142 50.5385V50.5385M28.3642 46.4135C26.9392 45.0385 25.8079 43.4197 24.9704 41.5572C24.1329 39.6947 23.7142 37.6885 23.7142 35.5385C23.7142 33.4635 24.1079 31.5135 24.8954 29.6885C25.6829 27.8635 26.7517 26.276 28.1017 24.926C29.4517 23.576 31.0392 22.5072 32.8642 21.7197C34.6892 20.9322 36.6392 20.5385 38.7142 20.5385C40.7892 20.5385 42.7392 20.9322 44.5642 21.7197C46.3892 22.5072 47.9767 23.576 49.3267 24.926C50.6767 26.276 51.7454 27.8635 52.5329 29.6885C53.3204 31.5135 53.7142 33.4635 53.7142 35.5385C53.7142 37.6885 53.2954 39.701 52.4579 41.576C51.6204 43.451 50.4892 45.0635 49.0642 46.4135L46.9642 44.3135C48.1142 43.2135 49.0267 41.9072 49.7017 40.3947C50.3767 38.8822 50.7142 37.2635 50.7142 35.5385C50.7142 32.1885 49.5517 29.351 47.2267 27.026C44.9017 24.701 42.0642 23.5385 38.7142 23.5385C35.3642 23.5385 32.5267 24.701 30.2017 27.026C27.8767 29.351 26.7142 32.1885 26.7142 35.5385C26.7142 37.2635 27.0517 38.876 27.7267 40.376C28.4017 41.876 29.3267 43.176 30.5017 44.276L28.3642 46.4135V46.4135M32.6017 42.176C31.7267 41.351 31.0267 40.3697 30.5017 39.2322C29.9767 38.0947 29.7142 36.8635 29.7142 35.5385C29.7142 33.0385 30.5892 30.9135 32.3392 29.1635C34.0892 27.4135 36.2142 26.5385 38.7142 26.5385C41.2142 26.5385 43.3392 27.4135 45.0892 29.1635C46.8392 30.9135 47.7142 33.0385 47.7142 35.5385C47.7142 36.8635 47.4517 38.101 46.9267 39.251C46.4017 40.401 45.7017 41.376 44.8267 42.176L42.6892 40.0385C43.3142 39.4635 43.8079 38.7885 44.1704 38.0135C44.5329 37.2385 44.7142 36.4135 44.7142 35.5385C44.7142 33.8885 44.1267 32.476 42.9517 31.301C41.7767 30.126 40.3642 29.5385 38.7142 29.5385C37.0642 29.5385 35.6517 30.126 34.4767 31.301C33.3017 32.476 32.7142 33.8885 32.7142 35.5385C32.7142 36.4385 32.8954 37.2697 33.2579 38.0322C33.6204 38.7947 34.1142 39.4635 34.7392 40.0385L32.6017 42.176V42.176" fill="white"/>
    </g>
  </g>
  <defs>
    <filter id="live_icon_shadow" x="23.7142" y="20.5385" width="30" height="31.3255" filterUnits="userSpaceOnUse" color-interpolation-filters="sRGB">
      <feFlood flood-opacity="0" result="BackgroundImageFix"/>
      <feColorMatrix in="SourceAlpha" type="matrix" values="0 0 0 0 0 0 0 0 0 0 0 0 0 0 0 0 0 0 127 0" result="hardAlpha"/>
      <feOffset dy="1.32547"/>
      <feComposite in2="hardAlpha" operator="out"/>
      <feColorMatrix type="matrix" values="0 0 0 0 0.880769 0 0 0 0 0.252374 0 0 0 0 0.252374 0 0 0 1 0"/>
      <feBlend mode="normal" in2="BackgroundImageFix" result="effect1_dropShadow"/>
      <feBlend mode="normal" in="SourceGraphic" in2="effect1_dropShadow" result="shape"/>
    </filter>
  </defs>
</svg>
