<svg width="94" height="108.281" viewBox="0 0 94 108.281" fill="none" xmlns="http://www.w3.org/2000/svg">
  <!-- Figma 2106:1295 — green outer (group149) + inner wedge + book (group25). -->
  <ellipse cx="47" cy="65.2812" rx="47" ry="43" fill="#00B442"/>
  <ellipse cx="47" cy="45" rx="47" ry="45" fill="#22C55E"/>
  <g transform="translate(7.95 6.63)">
    <mask id="book_mask0" style="mask-type:alpha" maskUnits="userSpaceOnUse" x="0" y="0" width="77" height="70">
      <ellipse cx="38.4388" cy="34.6836" rx="38.4388" ry="34.6836" fill="#D9D9D9"/>
    </mask>
    <g mask="url(#book_mask0)">
      <path d="M50.3679 -2.8935L2.65088 52.7448L-20.5449 23.1192L11.9292 -10.1192L50.3679 -2.8935Z" fill="#00AB73"/>
      <path d="M68.9246 -2.8935L11.9292 65.0285L31.1486 78.0349L81.5166 18.7838L68.9246 -2.8935Z" fill="#00AB73"/>
    </g>
    <!-- Scale book overlay roughly to match Figma inset (centered). -->
    <g transform="translate(15.4 17.6) scale(0.81)">
      <path d="M0 31.8114V10.6038C0 7.67564 2.43164 5.3019 5.43121 5.3019H50.2387C53.2383 5.3019 55.6699 7.67564 55.6699 10.6038V31.8114C55.6699 34.7395 53.2391 37.1133 50.2395 37.1133H38.6974C32.5873 37.1133 33.9451 41.7524 27.835 41.7524C21.7248 41.7524 23.0826 37.1133 16.9725 37.1133H5.43042C2.43085 37.1133 0 34.7395 0 31.8114Z" fill="#10B981"/>
      <path d="M20.5448 0C23.5877 0 25.9474 2.07896 27.1858 3.68014C27.4995 4.08578 28.1704 4.08578 28.4841 3.68014C29.7225 2.07896 32.0822 0 35.1251 0H45.067C47.2632 0 49.0425 1.7803 49.0425 3.97642V26.5095C49.0425 28.7056 47.2632 30.4859 45.0671 30.4859H35.7878C32.9385 30.4859 29.8765 32.6126 28.3163 34.0088C28.0435 34.2528 27.6264 34.2528 27.3536 34.0088C25.7934 32.6126 22.7314 30.4859 19.8821 30.4859H10.6028C8.40672 30.4859 6.62737 28.7056 6.62737 26.5095V3.97642C6.62737 1.7803 8.40675 0 10.6029 0H20.5448Z" fill="white"/>
      <mask id="book_midline_mask" style="mask-type:alpha" maskUnits="userSpaceOnUse" x="6" y="0" width="44" height="35">
        <path d="M20.5448 0C23.5877 0 25.9474 2.07896 27.1858 3.68014C27.4995 4.08578 28.1704 4.08578 28.4841 3.68014C29.7225 2.07896 32.0822 0 35.1251 0H45.067C47.2632 0 49.0425 1.7803 49.0425 3.97642V26.5095C49.0425 28.7056 47.2632 30.4859 45.0671 30.4859H35.7878C32.9385 30.4859 29.8765 32.6126 28.3163 34.0088C28.0435 34.2528 27.6264 34.2528 27.3536 34.0088C25.7934 32.6126 22.7314 30.4859 19.8821 30.4859H10.6028C8.40672 30.4859 6.62737 28.7056 6.62737 26.5095V3.97642C6.62737 1.7803 8.40675 0 10.6029 0H20.5448Z" fill="#D9D9D9"/>
      </mask>
      <g mask="url(#book_midline_mask)">
        <rect x="25.8467" y="1.32547" width="3.97642" height="34.4623" fill="#DBC3EB"/>
      </g>
    </g>
  </g>
</svg>
