<svg preserveAspectRatio="none" width="100%" height="100%" overflow="visible" style="display: block;" viewBox="0 0 21.2499 25.3124" fill="none" xmlns="http://www.w3.org/2000/svg">
<g id="Container">
<path id="Icon" d="M7.11536 1.87495V0H14.1346V1.87495H7.11536V1.87495M9.68748 15.6971H11.5624V8.67788H9.68748V15.6971V15.6971M10.625 25.3124C9.16342 25.3124 7.78843 25.0336 6.49997 24.4759C5.21152 23.9182 4.08492 23.157 3.12018 22.1923C2.15544 21.2275 1.39422 20.1009 0.836535 18.8125C0.278845 17.524 0 16.149 0 14.6875C0 13.2259 0.278845 11.851 0.836535 10.5625C1.39422 9.27404 2.15544 8.14744 3.12018 7.1827C4.08492 6.21796 5.21152 5.45675 6.49997 4.89906C7.78843 4.34137 9.16342 4.06252 10.625 4.06252C11.8766 4.06252 13.0821 4.27486 14.2415 4.69954C15.401 5.12422 16.4775 5.7324 17.4711 6.52406L19.0288 4.96638L20.346 6.28366L18.7884 7.84134C19.58 8.83493 20.1882 9.91145 20.6129 11.0709C21.0376 12.2304 21.2499 13.4359 21.2499 14.6875C21.2499 16.149 20.9711 17.524 20.4134 18.8125C19.8557 20.1009 19.0945 21.2275 18.1297 22.1923C17.165 23.157 16.0384 23.9182 14.7499 24.4759C13.4615 25.0336 12.0865 25.3124 10.625 25.3124V25.3124M10.625 23.4375C13.0416 23.4375 15.1041 22.5833 16.8125 20.875C18.5208 19.1666 19.375 17.1041 19.375 14.6875C19.375 12.2708 18.5208 10.2083 16.8125 8.49998C15.1041 6.79164 13.0416 5.93748 10.625 5.93748C8.20829 5.93748 6.14579 6.79164 4.43745 8.49998C2.72912 10.2083 1.87495 12.2708 1.87495 14.6875C1.87495 17.1041 2.72912 19.1666 4.43745 20.875C6.14579 22.5833 8.20829 23.4375 10.625 23.4375V23.4375M10.625 14.6875V14.6875V14.6875V14.6875V14.6875V14.6875V14.6875V14.6875V14.6875V14.6875" fill="var(--fill-0, #C7A55B)"/>
</g>
</svg>
