<svg width="20" height="21" viewBox="0 0 20 21" fill="none" xmlns="http://www.w3.org/2000/svg">
<path d="M9.5 21C8.45 21 7.5625 20.6375 6.8375 19.9125C6.1125 19.1875 5.75 18.3 5.75 17.25C5.75 16.3833 6.00833 15.6208 6.525 14.9625C7.04167 14.3042 7.7 13.8583 8.5 13.625V11.5H2.5V7.5H0V0.5H7V7.5H4.5V9.5H14.5V7.375C13.7 7.14167 13.0417 6.69583 12.525 6.0375C12.0083 5.37917 11.75 4.61667 11.75 3.75C11.75 2.7 12.1125 1.8125 12.8375 1.0875C13.5625 0.3625 14.45 0 15.5 0C16.55 0 17.4375 0.3625 18.1625 1.0875C18.8875 1.8125 19.25 2.7 19.25 3.75C19.25 4.61667 18.9917 5.37917 18.475 6.0375C17.9583 6.69583 17.3 7.14167 16.5 7.375V11.5H10.5V13.625C11.3 13.8583 11.9583 14.3042 12.475 14.9625C12.9917 15.6208 13.25 16.3833 13.25 17.25C13.25 18.3 12.8875 19.1875 12.1625 19.9125C11.4375 20.6375 10.55 21 9.5 21Z" fill="#2B415E"/>
</svg>
