<svg preserveAspectRatio="none" width="100%" height="100%" overflow="visible" style="display: block;" viewBox="0 0 60 57" fill="none" xmlns="http://www.w3.org/2000/svg">
<g id="Container">
<path id="Icon" d="M6 45V51V51V51H54V51V51V45H6V45M6 12H12.6C12.35 11.55 12.1875 11.075 12.1125 10.575C12.0375 10.075 12 9.55 12 9C12 6.5 12.875 4.375 14.625 2.625C16.375 0.875 18.5 0 21 0C22.5 0 23.8875 0.3875 25.1625 1.1625C26.4375 1.9375 27.55 2.9 28.5 4.05L30 6L31.5 4.05C32.4 2.85 33.5 1.875 34.8 1.125C36.1 0.375 37.5 0 39 0C41.5 0 43.625 0.875 45.375 2.625C47.125 4.375 48 6.5 48 9C48 9.55 47.9625 10.075 47.8875 10.575C47.8125 11.075 47.65 11.55 47.4 12H54C55.65 12 57.0625 12.5875 58.2375 13.7625C59.4125 14.9375 60 16.35 60 18V51C60 52.65 59.4125 54.0625 58.2375 55.2375C57.0625 56.4125 55.65 57 54 57H6C4.35 57 2.9375 56.4125 1.7625 55.2375C0.5875 54.0625 0 52.65 0 51V18C0 16.35 0.5875 14.9375 1.7625 13.7625C2.9375 12.5875 4.35 12 6 12V12M6 36H54V18V18V18H38.7L45 26.55L40.2 30L30 16.2L19.8 30L15 26.55L21.15 18H6V18V18V36V36M21 12C21.85 12 22.5625 11.7125 23.1375 11.1375C23.7125 10.5625 24 9.85 24 9C24 8.15 23.7125 7.4375 23.1375 6.8625C22.5625 6.2875 21.85 6 21 6C20.15 6 19.4375 6.2875 18.8625 6.8625C18.2875 7.4375 18 8.15 18 9C18 9.85 18.2875 10.5625 18.8625 11.1375C19.4375 11.7125 20.15 12 21 12V12M39 12C39.85 12 40.5625 11.7125 41.1375 11.1375C41.7125 10.5625 42 9.85 42 9C42 8.15 41.7125 7.4375 41.1375 6.8625C40.5625 6.2875 39.85 6 39 6C38.15 6 37.4375 6.2875 36.8625 6.8625C36.2875 7.4375 36 8.15 36 9C36 9.85 36.2875 10.5625 36.8625 11.1375C37.4375 11.7125 38.15 12 39 12V12" fill="var(--fill-0, #C7AF6D)" fill-opacity="0.2"/>
</g>
</svg>
