<svg preserveAspectRatio="none" width="100%" height="100%" overflow="visible" style="display: block;" viewBox="0 0 227 227" fill="none" xmlns="http://www.w3.org/2000/svg">
<path id="Icon" d="M193.518 223.595L160.319 190.68L135.349 215.65L127.404 207.705C123.053 203.354 120.878 197.963 120.878 191.531C120.878 185.1 123.053 179.708 127.404 175.357L175.357 127.404C179.708 123.053 185.1 120.878 191.531 120.878C197.963 120.878 203.354 123.053 207.705 127.404L215.65 135.349L190.68 160.319L223.595 193.518C225.865 195.788 227 198.436 227 201.463C227 204.489 225.865 207.138 223.595 209.408L209.408 223.595C207.138 225.865 204.489 227 201.463 227C198.436 227 195.788 225.865 193.518 223.595ZM227 45.4L98.1775 174.223L99.5963 175.357C103.947 179.708 106.123 185.1 106.123 191.531C106.123 197.963 103.947 203.354 99.5963 207.705L91.6513 215.65L66.6813 190.68L33.4825 223.595C31.2125 225.865 28.5642 227 25.5375 227C22.5108 227 19.8625 225.865 17.5925 223.595L3.405 209.408C1.135 207.138 0 204.489 0 201.463C0 198.436 1.135 195.788 3.405 193.518L36.32 160.319L11.35 135.349L19.295 127.404C23.6458 123.053 29.0371 120.878 35.4688 120.878C41.9004 120.878 47.2917 123.053 51.6425 127.404L52.7775 128.823L181.6 0H227V45.4ZM56.1825 101.583L0 45.4V0H45.4L101.583 56.1825L85.4088 72.0725L36.0363 22.7H22.7V36.0363L72.0725 85.4088L56.1825 101.583ZM82.2875 158.049L204.3 36.0363V22.7H190.964L68.9512 144.713L82.2875 158.049Z" fill="var(--fill-0, white)" fill-opacity="0.05"/>
</svg>
