<svg preserveAspectRatio="none" width="100%" height="100%" overflow="visible" style="display: block;" viewBox="0 0 79.8829 59.9121" fill="none" xmlns="http://www.w3.org/2000/svg">
<g id="Group 25">
<path id="Vector" d="M0 45.6473V15.2158C0 11.014 3.48924 7.60788 7.79345 7.60788H72.0894C76.3936 7.60788 79.8828 11.014 79.8828 15.2158V45.6473C79.8828 49.849 76.3947 53.2552 72.0905 53.2552H55.5283C46.7607 53.2552 48.709 59.9121 39.9414 59.9121C31.1738 59.9121 33.1221 53.2552 24.3545 53.2552H7.79231C3.48811 53.2552 0 49.849 0 45.6473Z" fill="var(--fill-0, #10B981)"/>
<path id="Vector_2" d="M29.4796 0C33.8459 0 37.2319 2.98318 39.0089 5.28077C39.4591 5.86284 40.4218 5.86284 40.8719 5.28077C42.6489 2.98318 46.035 0 50.4013 0H64.6674C67.8187 0 70.372 2.55463 70.372 5.70592V38.0394C70.372 41.1907 67.8187 43.7454 64.6674 43.7454H51.3523C47.2637 43.7454 42.87 46.7971 40.6311 48.8004C40.2397 49.1507 39.6411 49.1507 39.2497 48.8004C37.0109 46.7971 32.6171 43.7454 28.5286 43.7454H15.2134C12.0621 43.7454 9.50887 41.1907 9.50887 38.0394V5.70592C9.50887 2.55463 12.0622 0 15.2135 0H29.4796Z" fill="var(--fill-0, white)"/>
<g id="Mask group">
<mask id="mask0_0_179" style="mask-type:alpha" maskUnits="userSpaceOnUse" x="9" y="0" width="62" height="50">
<path id="Vector_3" d="M29.4796 0C33.8459 0 37.2319 2.98318 39.0089 5.28077C39.4591 5.86284 40.4218 5.86284 40.8719 5.28077C42.6489 2.98318 46.035 0 50.4013 0H64.6674C67.8187 0 70.372 2.55463 70.372 5.70592V38.0394C70.372 41.1907 67.8187 43.7454 64.6674 43.7454H51.3523C47.2637 43.7454 42.87 46.7971 40.6311 48.8004C40.2397 49.1507 39.6411 49.1507 39.2497 48.8004C37.0109 46.7971 32.6171 43.7454 28.5286 43.7454H15.2134C12.0621 43.7454 9.50887 41.1907 9.50887 38.0394V5.70592C9.50887 2.55463 12.0622 0 15.2135 0H29.4796Z" fill="var(--fill-0, #D9D9D9)"/>
</mask>
<g mask="url(#mask0_0_179)">
<rect id="Rectangle 23" x="37.088" y="1.90198" width="5.70592" height="49.4513" fill="var(--fill-0, #DBC3EB)"/>
</g>
</g>
</g>
</svg>
