<svg preserveAspectRatio="none" width="100%" height="100%" overflow="visible" style="display: block;" viewBox="0 0 152.155 171.175" fill="none" xmlns="http://www.w3.org/2000/svg">
<g id="Frame" clip-path="url(#clip0_0_185)">
<path id="Vector" opacity="0.3" d="M144.548 72.2726H7.60768C3.40602 72.2726 -9.17628e-05 75.6787 -9.17628e-05 79.8804V140.743C-9.17628e-05 144.944 3.40602 148.35 7.60768 148.35H144.548C148.749 148.35 152.155 144.944 152.155 140.743V79.8804C152.155 75.6787 148.749 72.2726 144.548 72.2726Z" fill="var(--fill-0, #C7AF6D)"/>
<path id="Vector_2" d="M15.7637 75.5774C15.7637 65.0473 24.2999 56.511 34.83 56.511H115.553C126.083 56.511 134.619 65.0473 134.619 75.5774V126.138C134.619 130.35 131.205 133.765 126.993 133.765H23.3902C19.1782 133.765 15.7637 130.35 15.7637 126.138V75.5774Z" fill="var(--fill-0, #C7AF6D)"/>
<path id="Vector_3" d="M11.6446 47.9776C11.6446 37.4475 20.181 28.9112 30.7111 28.9112H120.323C130.853 28.9112 139.39 37.4475 139.39 47.9776V104.7H11.6446V47.9776Z" fill="var(--fill-0, #C7AF6D)"/>
<path id="Vector_4" d="M146.294 81.3418H5.91406V103.268H146.294V81.3418Z" fill="var(--fill-0, #D8D8D8)"/>
<path id="Vector_5" d="M127.469 48.4507H142.487C144.593 48.4507 146.301 50.1579 146.301 52.2639V87.0601H127.469V48.4507Z" fill="var(--fill-0, #C7AF6D)"/>
<path id="Vector_6" d="M5.91406 52.2639C5.91406 50.1579 7.62132 48.4507 9.72734 48.4507H21.8859C23.9919 48.4507 25.6993 50.1579 25.6993 52.2639V83.2469C25.6993 85.3529 23.9919 87.0601 21.8859 87.0601H9.72734C7.62132 87.0601 5.91406 85.3529 5.91406 83.2469V52.2639Z" fill="var(--fill-0, #C7AF6D)"/>
<path id="Vector_7" d="M11.6446 26.6373C11.6446 24.5312 13.3518 22.8241 15.4579 22.8241H35.4775C37.5836 22.8241 39.2909 24.5312 39.2909 26.6373V65.6229H11.6446V26.6373Z" fill="var(--fill-0, #A38F5A)"/>
<path id="Vector_8" d="M111.74 26.6372C111.74 24.5312 113.448 22.824 115.554 22.824H135.573C137.679 22.824 139.387 24.5312 139.387 26.6372V65.6228H111.74V26.6372Z" fill="var(--fill-0, #A38F5A)"/>
<path id="Vector_9" d="M11.8906 45.9181L39.1799 39.1238V63.1832L11.8906 62.8488V45.9181Z" fill="var(--fill-0, #C7AF6D)"/>
<path id="Vector_10" d="M11.6446 60.3336H39.2909V87.9017H11.6446V60.3336Z" fill="var(--fill-0, #A6925C)"/>
<path id="Vector_11" d="M11.6446 99.9414C11.6446 97.8354 13.3518 96.1281 15.4579 96.1281H35.4775C37.5836 96.1281 39.2909 97.8354 39.2909 99.9414V133.885C39.2909 135.991 37.5836 137.698 35.4775 137.698H15.4579C13.3518 137.698 11.6446 135.991 11.6446 133.885V99.9414Z" fill="var(--fill-0, #C7AF6D)"/>
<path id="Vector_12" d="M109.236 99.9413C109.236 97.8353 110.944 96.1279 113.05 96.1279H133.069C135.175 96.1279 136.883 97.8353 136.883 99.9413V133.885C136.883 135.991 135.175 137.698 133.069 137.698H113.05C110.944 137.698 109.236 135.991 109.236 133.885V99.9413Z" fill="var(--fill-0, #C7AF6D)"/>
<path id="Vector_13" d="M139.386 60.3337H111.74V87.9018H139.386V60.3337Z" fill="var(--fill-0, #A6925C)"/>
<path id="Vector_14" d="M80.76 94.9397H70.2734V113.41H80.76V94.9397Z" fill="var(--fill-0, #C4C4C4)"/>
<path id="Vector_15" d="M39.2908 105.186H11.6446V114.481H39.2908V105.186Z" fill="var(--fill-0, #9A9A9A)"/>
<path id="Vector_16" d="M136.883 105.186H109.236V114.481H136.883V105.186Z" fill="var(--fill-0, #9A9A9A)"/>
<path id="Vector_17" d="M109.227 121.374H39.2773V126.378H109.227V121.374Z" fill="var(--fill-0, #A38F5A)"/>
<path id="Vector_18" d="M111.73 44.9644H39.2773V49.9693H111.73V44.9644Z" fill="var(--fill-0, #A38F5A)"/>
<path id="Vector_19" opacity="0.92" d="M109.227 105.186H39.2773V114.481H109.227V105.186Z" fill="var(--fill-0, #888888)"/>
<path id="Vector_20" opacity="0.92" d="M111.73 67.1382H39.2773V81.3375H111.73V67.1382Z" fill="var(--fill-0, #A38F5A)"/>
<path id="Vector_21" d="M5.91406 87.8997H146.294V105.179C146.294 107.285 144.587 108.992 142.481 108.992H9.72734C7.62132 108.992 5.91406 107.285 5.91406 105.179V87.8997Z" fill="var(--fill-0, #F6F6F6)"/>
<path id="Vector_22" d="M89.0928 72.99H60.7315C57.5724 72.99 55.0115 75.5509 55.0115 78.71V101.887C55.0115 105.046 57.5724 107.607 60.7315 107.607H89.0928C92.2518 107.607 94.8127 105.046 94.8127 101.887V78.71C94.8127 75.5509 92.2518 72.99 89.0928 72.99Z" fill="var(--fill-0, #D8D8D8)"/>
<path id="Vector_23" d="M63.9048 72.99H60.7314C57.5725 72.99 55.0115 75.5508 55.0115 78.7099V101.887C55.0115 105.046 57.5725 107.607 60.7314 107.607H62.641C63.6403 107.607 64.4442 106.785 64.4227 105.786L63.9048 81.7198V72.99Z" fill="var(--fill-0, #EDEDED)"/>
<path id="Vector_24" d="M89.0928 81.4986H60.7315C57.5724 81.4986 55.0115 84.0596 55.0115 87.2186V109.901C55.0115 113.06 57.5724 115.621 60.7315 115.621H89.0928C92.2518 115.621 94.8127 113.06 94.8127 109.901V87.2186C94.8127 84.0596 92.2518 81.4986 89.0928 81.4986Z" fill="var(--fill-0, #F6F6F6)"/>
<path id="Vector_25" d="M74.2554 101.271C78.4017 101.271 81.7629 98.2529 81.7629 94.5295C81.7629 90.806 78.4017 87.7876 74.2554 87.7876C70.1092 87.7876 66.748 90.806 66.748 94.5295C66.748 98.2529 70.1092 101.271 74.2554 101.271Z" fill="var(--fill-0, #A6925C)"/>
<path id="Vector_26" d="M72.5519 98.1347C73.2545 96.7295 75.2599 96.7295 75.9624 98.1347L79.3789 104.967C80.0128 106.235 79.0911 107.727 77.6736 107.727H70.8407C69.4234 107.727 68.5015 106.235 69.1354 104.967L72.5519 98.1347Z" fill="var(--fill-0, #A6925C)"/>
<path id="Vector_27" d="M111.805 31.1579L139.327 24.5168V39.6653L111.805 46.3065V31.1579Z" fill="var(--fill-0, #C7AF6D)"/>
<path id="Vector_28" d="M55.0158 80.5569H38.959V87.79H55.0158V80.5569Z" fill="var(--fill-0, #EDEDED)"/>
</g>
<defs>
<clipPath id="clip0_0_185">
<rect width="152.155" height="171.175" fill="white"/>
</clipPath>
</defs>
</svg>
