<svg preserveAspectRatio="none" width="100%" height="100%" overflow="visible" style="display: block;" viewBox="0 0 54.5276 54.5276" fill="none" xmlns="http://www.w3.org/2000/svg">
<g id="hugeicons:boxing-glove-01">
<path id="Vector" d="M12.459 24.4173C12.2613 30.6039 19.5521 38.2286 26.3863 40.6233M12.459 24.4173C11.7683 25.6055 4.70019 31.2718 4.57523 33.671C3.97769 38.4377 12.075 47.3915 18.3207 47.696C20.6495 48.0277 23.8848 44.1063 27.1633 41.189C28.9695 39.585 31.5709 39.2124 41.9857 36.6269C45.7663 35.9703 50.3057 29.452 43.5761 23.9265M12.459 24.4173C14.5697 19.4189 18.2139 9.74932 25.3639 5.93012C28.2675 4.28066 35.8105 2.76297 43.199 9.78795C45.7436 11.9259 50.1512 16.6084 46.048 22.0067C43.3126 25.192 39.1775 24.2696 38.7777 29.7814" stroke="var(--stroke-0, white)" stroke-width="3.65909" stroke-linecap="round" stroke-linejoin="round"/>
</g>
</svg>
