<svg preserveAspectRatio="none" width="100%" height="100%" overflow="visible" style="display: block;" viewBox="0 0 110.314 99.5375" fill="none" xmlns="http://www.w3.org/2000/svg">
<g id="Group 150">
<g id="Mask group">
<mask id="mask0_0_145" style="mask-type:alpha" maskUnits="userSpaceOnUse" x="0" y="0" width="111" height="100">
<ellipse id="Ellipse 34" cx="55.1572" cy="49.7688" rx="55.1572" ry="49.7688" fill="var(--fill-0, #D9D9D9)"/>
</mask>
<g mask="url(#mask0_0_145)">
<g id="Vector 43">
<path d="M72.2751 -4.15202L3.80411 75.6854L-29.4804 33.1746L17.1179 -14.5205L72.2751 -4.15202Z" fill="var(--fill-0, #E3C87D)"/>
<path d="M98.9027 -4.15202L17.1179 93.3118L44.6965 111.975L116.971 26.9535L98.9027 -4.15202Z" fill="var(--fill-0, #E3C87D)"/>
</g>
</g>
</g>
<path id="Icon" d="M55.3126 82.1417L25.8964 59.9962L31.2894 56.0417L55.3126 74.0744L79.3359 56.0417L84.7288 59.9962L55.3126 82.1417ZM55.3126 66.1653L25.8964 44.0199L55.3126 21.8744L84.7288 44.0199L55.3126 66.1653ZM55.3126 58.0981L74.1063 44.0199L55.3126 29.9417L36.5189 44.0199L55.3126 58.0981Z" fill="var(--fill-0, white)"/>
</g>
</svg>
