<svg preserveAspectRatio="none" width="100%" height="100%" overflow="visible" style="display: block;" viewBox="0 0 110.314 99.5375" fill="none" xmlns="http://www.w3.org/2000/svg">
<g id="Group 150">
<g id="Mask group">
<mask id="mask0_0_214" style="mask-type:alpha" maskUnits="userSpaceOnUse" x="0" y="0" width="111" height="100">
<ellipse id="Ellipse 34" cx="55.1572" cy="49.7688" rx="55.1572" ry="49.7688" fill="var(--fill-0, #D9D9D9)"/>
</mask>
<g mask="url(#mask0_0_214)">
<g id="Vector 44">
<path d="M72.2751 -5.01076L3.80411 68.2152L-29.4804 29.2247L17.1179 -14.5206L72.2751 -5.01076Z" fill="var(--fill-0, #FF6969)"/>
<path d="M98.9027 -5.01076L17.1179 84.3819L44.6965 101.5L116.971 23.5188L98.9027 -5.01076Z" fill="var(--fill-0, #FF6969)"/>
</g>
</g>
</g>
<g id="Icon" filter="url(#filter0_d_0_214)">
<path d="M52.7979 72.001L52.7979 55.451C52.1979 55.0843 51.7145 54.6093 51.3479 54.026C50.9812 53.4426 50.7979 52.7676 50.7979 52.001C50.7979 50.901 51.1895 49.9593 51.9729 49.176C52.7562 48.3926 53.6979 48.001 54.7979 48.001C55.8979 48.001 56.8395 48.3926 57.6229 49.176C58.4062 49.9593 58.7979 50.901 58.7979 52.001C58.7979 52.7676 58.6145 53.451 58.2479 54.051C57.8812 54.651 57.3979 55.1176 56.7979 55.451L56.7979 72.001L52.7979 72.001ZM40.9979 66.501C39.0979 64.6676 37.5895 62.5093 36.4729 60.026C35.3562 57.5426 34.7979 54.8676 34.7979 52.001C34.7979 49.2343 35.3229 46.6343 36.3729 44.201C37.4229 41.7676 38.8479 39.651 40.6479 37.851C42.4479 36.051 44.5645 34.626 46.9979 33.576C49.4312 32.526 52.0312 32.001 54.7979 32.001C57.5645 32.001 60.1645 32.526 62.5979 33.576C65.0312 34.626 67.1479 36.051 68.9479 37.851C70.7479 39.651 72.1729 41.7676 73.2229 44.201C74.2729 46.6343 74.7979 49.2343 74.7979 52.001C74.7979 54.8676 74.2395 57.551 73.1229 60.051C72.0062 62.551 70.4979 64.701 68.5979 66.501L65.7979 63.701C67.3312 62.2343 68.5479 60.4926 69.4479 58.476C70.3479 56.4593 70.7979 54.301 70.7979 52.001C70.7979 47.5343 69.2479 43.751 66.1479 40.651C63.0479 37.551 59.2645 36.001 54.7979 36.001C50.3312 36.001 46.5479 37.551 43.4479 40.651C40.3479 43.751 38.7979 47.5343 38.7979 52.001C38.7979 54.301 39.2479 56.451 40.1479 58.451C41.0479 60.451 42.2812 62.1843 43.8479 63.651L40.9979 66.501ZM46.6479 60.851C45.4812 59.751 44.5479 58.4426 43.8479 56.926C43.1479 55.4093 42.7979 53.7676 42.7979 52.001C42.7979 48.6676 43.9645 45.8343 46.2979 43.501C48.6312 41.1676 51.4645 40.001 54.7979 40.001C58.1312 40.001 60.9645 41.1676 63.2979 43.501C65.6312 45.8343 66.7979 48.6676 66.7979 52.001C66.7979 53.7676 66.4479 55.4176 65.7479 56.951C65.0479 58.4843 64.1145 59.7843 62.9479 60.851L60.0979 58.001C60.9312 57.2343 61.5895 56.3343 62.0729 55.301C62.5562 54.2676 62.7979 53.1676 62.7979 52.001C62.7979 49.801 62.0145 47.9176 60.4479 46.351C58.8812 44.7843 56.9979 44.001 54.7979 44.001C52.5979 44.001 50.7145 44.7843 49.1479 46.351C47.5812 47.9176 46.7979 49.801 46.7979 52.001C46.7979 53.201 47.0395 54.3093 47.5229 55.326C48.0062 56.3426 48.6645 57.2343 49.4979 58.001L46.6479 60.851Z" fill="var(--fill-0, white)"/>
</g>
</g>
<defs>
<filter id="filter0_d_0_214" x="34.7979" y="32.001" width="40" height="41.902" filterUnits="userSpaceOnUse" color-interpolation-filters="sRGB">
<feFlood flood-opacity="0" result="BackgroundImageFix"/>
<feColorMatrix in="SourceAlpha" type="matrix" values="0 0 0 0 0 0 0 0 0 0 0 0 0 0 0 0 0 0 127 0" result="hardAlpha"/>
<feOffset dy="1.90197"/>
<feComposite in2="hardAlpha" operator="out"/>
<feColorMatrix type="matrix" values="0 0 0 0 0.880769 0 0 0 0 0.252374 0 0 0 0 0.252374 0 0 0 1 0"/>
<feBlend mode="normal" in2="BackgroundImageFix" result="effect1_dropShadow_0_214"/>
<feBlend mode="normal" in="SourceGraphic" in2="effect1_dropShadow_0_214" result="shape"/>
</filter>
</defs>
</svg>
