<svg preserveAspectRatio="none" width="100%" height="100%" overflow="visible" style="display: block;" viewBox="0 0 110.314 99.5375" fill="none" xmlns="http://www.w3.org/2000/svg">
<g id="Group 150">
<g id="Mask group">
<mask id="mask0_0_153" style="mask-type:alpha" maskUnits="userSpaceOnUse" x="0" y="0" width="111" height="100">
<ellipse id="Ellipse 34" cx="55.1572" cy="49.7688" rx="55.1572" ry="49.7688" fill="var(--fill-0, #D9D9D9)"/>
</mask>
<g mask="url(#mask0_0_153)">
<g id="Vector 43">
<path d="M72.2751 -4.15202L3.80411 75.6854L-29.4804 33.1746L17.1179 -14.5205L72.2751 -4.15202Z" fill="var(--fill-0, #3263A5)"/>
<path d="M98.9027 -4.15202L17.1179 93.3118L44.6965 111.975L116.971 26.9535L98.9027 -4.15202Z" fill="var(--fill-0, #3263A5)"/>
</g>
</g>
</g>
<path id="Icon" d="M60.3372 58.8839C61.0149 58.8839 61.6029 58.6347 62.1011 58.1365C62.5994 57.6382 62.8486 57.0502 62.8486 56.3725C62.8486 55.6948 62.5994 55.1069 62.1011 54.6086C61.6029 54.1103 61.0149 53.8611 60.3372 53.8611C59.6595 53.8611 59.0715 54.1103 58.5733 54.6086C58.075 55.1069 57.8258 55.6948 57.8258 56.3725C57.8258 57.0502 58.075 57.6382 58.5733 58.1365C59.0715 58.6347 59.6595 58.8839 60.3372 58.8839ZM58.5434 51.2302H62.131C62.131 50.0741 62.2506 49.227 62.4898 48.6889C62.729 48.1507 63.2871 47.4432 64.1641 46.5662C65.36 45.3703 66.1572 44.4036 66.5558 43.6661C66.9545 42.9287 67.1538 42.0617 67.1538 41.0651C67.1538 39.2712 66.5259 37.8063 65.2703 36.6702C64.0146 35.5341 62.3702 34.966 60.3372 34.966C58.7028 34.966 57.2777 35.4244 56.0619 36.3413C54.846 37.2581 53.999 38.474 53.5206 39.9888L56.7495 41.3043C57.1083 40.3077 57.5966 39.5602 58.2145 39.0619C58.8324 38.5637 59.5399 38.3145 60.3372 38.3145C61.2939 38.3145 62.0712 38.5836 62.6692 39.1217C63.2671 39.6599 63.5661 40.3874 63.5661 41.3043C63.5661 41.8623 63.4067 42.3905 63.0878 42.8888C62.7688 43.3871 62.2108 44.0149 61.4135 44.7723C60.098 45.9284 59.2908 46.8353 58.9918 47.493C58.6928 48.1507 58.5434 49.3965 58.5434 51.2302ZM45.9865 66.0593C44.671 66.0593 43.5449 65.5909 42.6081 64.6541C41.6713 63.7173 41.2029 62.5912 41.2029 61.2757V32.5742C41.2029 31.2587 41.6713 30.1326 42.6081 29.1958C43.5449 28.259 44.671 27.7906 45.9865 27.7906H74.6879C76.0034 27.7906 77.1295 28.259 78.0663 29.1958C79.0031 30.1326 79.4715 31.2587 79.4715 32.5742V61.2757C79.4715 62.5912 79.0031 63.7173 78.0663 64.6541C77.1295 65.5909 76.0034 66.0593 74.6879 66.0593H45.9865ZM45.9865 61.2757H74.6879V32.5742H45.9865V61.2757ZM36.4193 75.6264C35.1038 75.6264 33.9777 75.158 33.0409 74.2212C32.1041 73.2844 31.6357 72.1583 31.6357 70.8428V37.3578H36.4193V70.8428H69.9043V75.6264H36.4193Z" fill="var(--fill-0, white)"/>
</g>
</svg>
